REM DIRINDEX 1\4,1\2\5,1\2\6,1\3\7,1\3\8
REM DIRNAME cjc124,folder01,folder02,folder03,folder04,folder05,folder06,folder07
TITLE ""
FILE "048_Day24_Check3_Sentences.mp3" MP3
  TRACK 01 AUDIO
    TITLE "0:"
    INDEX 01 00:00:00
  TRACK 02 AUDIO
    TITLE "4:cjc124_1554"
    INDEX 01 00:00:25
  TRACK 03 AUDIO
    TITLE "0:"
    INDEX 01 00:01:54
  TRACK 04 AUDIO
    TITLE "7:cjc124_1555"
    INDEX 01 00:02:18
  TRACK 05 AUDIO
    TITLE "0:"
    INDEX 01 00:05:38
  TRACK 06 AUDIO
    TITLE "8:cjc124_1556"
    INDEX 01 00:05:54
  TRACK 07 AUDIO
    TITLE "0:"
    INDEX 01 00:08:13
  TRACK 08 AUDIO
    TITLE "7:cjc124_1557"
    INDEX 01 00:08:52
  TRACK 09 AUDIO
    TITLE "0:"
    INDEX 01 00:11:42
  TRACK 10 AUDIO
    TITLE "8:cjc124_1558"
    INDEX 01 00:11:70
  TRACK 11 AUDIO
    TITLE "0:"
    INDEX 01 00:14:15
  TRACK 12 AUDIO
    TITLE "7:cjc124_1559"
    INDEX 01 00:14:53
  TRACK 13 AUDIO
    TITLE "0:"
    INDEX 01 00:18:31
  TRACK 14 AUDIO
    TITLE "8:cjc124_1560"
    INDEX 01 00:18:46
  TRACK 15 AUDIO
    TITLE "0:"
    INDEX 01 00:21:66
  TRACK 16 AUDIO
    TITLE "7:cjc124_1561"
    INDEX 01 00:22:27
  TRACK 17 AUDIO
    TITLE "0:"
    INDEX 01 00:24:25
  TRACK 18 AUDIO
    TITLE "8:cjc124_1562"
    INDEX 01 00:24:39
  TRACK 19 AUDIO
    TITLE "0:"
    INDEX 01 00:25:68
  TRACK 20 AUDIO
    TITLE "7:cjc124_1563"
    INDEX 01 00:26:32
  TRACK 21 AUDIO
    TITLE "0:"
    INDEX 01 00:29:62
  TRACK 22 AUDIO
    TITLE "8:cjc124_1564"
    INDEX 01 00:30:03
  TRACK 23 AUDIO
    TITLE "0:"
    INDEX 01 00:33:22
  TRACK 24 AUDIO
    TITLE "7:cjc124_1565"
    INDEX 01 00:33:58
  TRACK 25 AUDIO
    TITLE "0:"
    INDEX 01 00:37:48
  TRACK 26 AUDIO
    TITLE "8:cjc124_1566"
    INDEX 01 00:37:63
  TRACK 27 AUDIO
    TITLE "0:"
    INDEX 01 00:40:48
  TRACK 28 AUDIO
    TITLE "7:cjc124_1567"
    INDEX 01 00:41:10
  TRACK 29 AUDIO
    TITLE "0:"
    INDEX 01 00:44:63
  TRACK 30 AUDIO
    TITLE "8:cjc124_1568"
    INDEX 01 00:45:02
  TRACK 31 AUDIO
    TITLE "0:"
    INDEX 01 00:48:12
  TRACK 32 AUDIO
    TITLE "7:cjc124_1569"
    INDEX 01 00:48:57
  TRACK 33 AUDIO
    TITLE "0:"
    INDEX 01 00:50:62
  TRACK 34 AUDIO
    TITLE "8:cjc124_1570"
    INDEX 01 00:51:03
  TRACK 35 AUDIO
    TITLE "0:"
    INDEX 01 00:52:41
  TRACK 36 AUDIO
    TITLE "7:cjc124_1571"
    INDEX 01 00:53:02
  TRACK 37 AUDIO
    TITLE "0:"
    INDEX 01 00:56:24
  TRACK 38 AUDIO
    TITLE "8:cjc124_1572"
    INDEX 01 00:56:39
  TRACK 39 AUDIO
    TITLE "0:"
    INDEX 01 00:59:51
  TRACK 40 AUDIO
    TITLE "7:cjc124_1573"
    INDEX 01 01:00:15
  TRACK 41 AUDIO
    TITLE "0:"
    INDEX 01 01:05:09
  TRACK 42 AUDIO
    TITLE "8:cjc124_1574"
    INDEX 01 01:05:22
  TRACK 43 AUDIO
    TITLE "0:"
    INDEX 01 01:08:21
  TRACK 44 AUDIO
    TITLE "7:cjc124_1575"
    INDEX 01 01:08:60
  TRACK 45 AUDIO
    TITLE "0:"
    INDEX 01 01:11:31
  TRACK 46 AUDIO
    TITLE "8:cjc124_1576"
    INDEX 01 01:11:58
  TRACK 47 AUDIO
    TITLE "0:"
    INDEX 01 01:14:21
  TRACK 48 AUDIO
    TITLE "7:cjc124_1577"
    INDEX 01 01:14:57
  TRACK 49 AUDIO
    TITLE "0:"
    INDEX 01 01:17:41
  TRACK 50 AUDIO
    TITLE "8:cjc124_1578"
    INDEX 01 01:17:57
  TRACK 51 AUDIO
    TITLE "0:"
    INDEX 01 01:20:22
  TRACK 52 AUDIO
    TITLE "7:cjc124_1579"
    INDEX 01 01:20:57
  TRACK 53 AUDIO
    TITLE "0:"
    INDEX 01 01:24:20
  TRACK 54 AUDIO
    TITLE "8:cjc124_1580"
    INDEX 01 01:24:47
  TRACK 55 AUDIO
    TITLE "0:"
    INDEX 01 01:27:44
  TRACK 56 AUDIO
    TITLE "7:cjc124_1581"
    INDEX 01 01:28:06
  TRACK 57 AUDIO
    TITLE "0:"
    INDEX 01 01:30:58
  TRACK 58 AUDIO
    TITLE "8:cjc124_1582"
    INDEX 01 01:31:00
  TRACK 59 AUDIO
    TITLE "0:"
    INDEX 01 01:32:64
  TRACK 60 AUDIO
    TITLE "7:cjc124_1583"
    INDEX 01 01:33:27
  TRACK 61 AUDIO
    TITLE "0:"
    INDEX 01 01:35:33
  TRACK 62 AUDIO
    TITLE "8:cjc124_1584"
    INDEX 01 01:35:47
  TRACK 63 AUDIO
    TITLE "0:"
    INDEX 01 01:37:46
  TRACK 64 AUDIO
    TITLE "7:cjc124_1585"
    INDEX 01 01:38:08
  TRACK 65 AUDIO
    TITLE "0:"
    INDEX 01 01:40:31
  TRACK 66 AUDIO
    TITLE "8:cjc124_1586"
    INDEX 01 01:40:46
  TRACK 67 AUDIO
    TITLE "0:"
    INDEX 01 01:43:31
